<?xml version="1.0" standalone="no"?>
<!DOCTYPE svg PUBLIC "-//W3C//DTD SVG 20010904//EN"
 "http://www.w3.org/TR/2001/REC-SVG-20010904/DTD/svg10.dtd">
<svg version="1.0" xmlns="http://www.w3.org/2000/svg"
 width="900.000000pt" height="900.000000pt" viewBox="0 0 900.000000 900.000000"
 preserveAspectRatio="xMidYMid meet">

<g transform="translate(0.000000,900.000000) scale(0.100000,-0.100000)"
fill="#000000" stroke="none">
<path d="M4265 7850 c-137 -59 -655 -282 -1150 -495 -494 -212 -906 -390 -914
-394 -10 -6 4 -18 50 -44 155 -85 2263 -1197 2270 -1197 19 0 2449 1234 2442
1240 -9 8 -2435 1001 -2443 999 -3 0 -117 -49 -255 -109z"/>
<path d="M6133 5467 l-363 -191 0 -668 0 -668 -1265 0 -1265 0 0 663 0 662
-168 89 c-92 49 -253 136 -359 193 -106 56 -194 103 -198 103 -3 0 -4 -1007
-3 -2237 3 -2064 4 -2240 20 -2268 49 -89 136 -125 313 -132 190 -8 315 31
367 114 l23 38 3 1043 2 1042 1265 0 1265 0 2 -1037 3 -1038 23 -40 c45 -79
128 -114 293 -122 124 -7 223 8 294 42 57 27 88 63 105 121 8 29 10 632 8
2260 l-3 2222 -362 -191z"/>
</g>
</svg>
